REM GENRE Trance
REM DATE 2000
REM COMMENT "DCue v1.5dev"
PERFORMER "Ferry Corsten - System F"
TITLE "Trance Nation Four"
FILE "r13835.wav" WAVE
	TRACK 01 AUDIO
		TITLE "Sexual (Deep Dish Cheez Whiz Dub)"
		PERFORMER "Amber"
		INDEX 01 00:00:00
	TRACK 02 AUDIO
		TITLE "How's Your Evening So Far? (UK 12'' Mix)"
		PERFORMER "Josh Wink & Lil Louis"
		INDEX 01 02:34:00
	TRACK 03 AUDIO
		TITLE "Silence (DJ Tiesto In Search Of Sunrise Remix)"
		PERFORMER "Delerium Featuring Sarah McLachlan"
		INDEX 01 07:55:00
	TRACK 04 AUDIO
		TITLE "Sister Sister (12'' Mix)"
		PERFORMER "Sister Bliss"
		INDEX 01 13:52:00
	TRACK 05 AUDIO
		TITLE "West On 27th (Original 'Subway' Mix)"
		PERFORMER "Killahurtz"
		INDEX 01 20:30:00
	TRACK 06 AUDIO
		TITLE "Impact (Original Mix)"
		PERFORMER "John Johnson"
		INDEX 01 24:41:00
	TRACK 07 AUDIO
		TITLE "Mauna Kea (Volcanic Mix)"
		PERFORMER "Twister"
		INDEX 01 29:06:00
	TRACK 08 AUDIO
		TITLE "Free (Mark Shimmon & 3rd Degree's Twister Remix)"
		PERFORMER "John '00' Fleming"
		INDEX 01 33:29:00
	TRACK 09 AUDIO
		TITLE "Lost In Motion (Original Mix)"
		PERFORMER "System F"
		INDEX 01 36:42:00
	TRACK 10 AUDIO
		TITLE "Skydive (Original Mix)"
		PERFORMER "Freefall Featuring Jan Johnston"
		INDEX 01 42:00:00
	TRACK 11 AUDIO
		TITLE "Love Has Come Again (Original Mix)"
		PERFORMER "Human Movement Featuring Sophie Moleta"
		INDEX 01 47:46:00
	TRACK 12 AUDIO
		TITLE "Desire (Dub Mix)"
		PERFORMER "Memnon Featuring Seroya"
		INDEX 01 51:42:00
	TRACK 13 AUDIO
		TITLE "Air 2000 (Oliver Lieb Remix)"
		PERFORMER "Albion"
		INDEX 01 55:10:00
	TRACK 14 AUDIO
		TITLE "Love Shy (Electrique Boutique Vocal Mix)"
		PERFORMER "Kristine Blond"
		INDEX 01 58:25:00
	TRACK 15 AUDIO
		TITLE "Fiji (Lange Remix)"
		PERFORMER "Atlantis vs Avatar Featuring Miriam Stockley"
		INDEX 01 62:21:00
	TRACK 16 AUDIO
		TITLE "Galaxia (Solar Stone Remix)"
		PERFORMER "Moonman"
		INDEX 01 66:47:00
	TRACK 17 AUDIO
		TITLE "Eternity (Darren Tate Mix)"
		PERFORMER "Orion"
		INDEX 01 71:53:00
